<svg xmlns="http://www.w3.org/2000/svg" xmlns:xlink="http://www.w3.org/1999/xlink" viewBox="0 0 391.7 94.6"><defs><path id="a" d="M0 0h391.7v94.6H0z"/></defs><clipPath id="b"><use xlink:href="#a" overflow="visible"/></clipPath><path d="M217.2 36.9c2.6.8 3.9-2.4 4.1-4.4.4-3.3-.5-6.9-2.4-10l2.1-1.8c2.4 1.5 5.1 2.4 7.8 2.6 2.3.2 5.2-.1 6.5-2.3 1.3-2.1.5-5.1-1.2-6.8-1.7-1.8-4.7-1-6.8-.3-2.7 1-5.3 2.4-7.7 4.1-.2-.2-.5-.3-.7-.5 2-1.9 3.3-4.6 3.7-7.3.4-2.6.1-5.3-1.3-7.6-1.2-2.2-3.2-3.7-5.4-1.6-4 3.9-2.8 10.4.2 15-.6.5-1.3.9-2.1 1.2-.2-.2-.4-.3-.6-.5 0-.8-.2-1.6-.5-2.4-.8-1.9-2.6-3.8-4-1.2-.3.5-.4 1-.5 1.5-1.4-.3-2.9-.4-4.3-.5l-.1-.1c0-.1-.1-.1-.1-.2-1.1-1.6-3.3-2.4-5.6-2.4-.4-.3-.9-.5-1.3-.6-3.6-1-7.5.9-9.5 3.9-1.4 0-3.1.2-4.5.5-.1-.5-.2-1-.5-1.5-1.4-2.5-3.2-.6-4 1.2-.3.8-.5 1.6-.5 2.4-.2.1-.4.3-.6.5-.7-.3-1.4-.7-2.1-1.2 3-4.6 4.2-11.1.2-15-2.2-2.1-4.2-.6-5.4 1.6-1.3 2.3-1.7 5-1.3 7.6.5 2.7 1.8 5.3 3.7 7.3-.2.2-.5.3-.7.5-2.3-1.7-4.9-3.2-7.7-4.1-2.1-.7-5.1-1.6-6.8.3-1.6 1.7-2.4 4.7-1.2 6.8 1.3 2.2 4.2 2.5 6.4 2.3 2.8-.2 5.5-1.1 7.8-2.6.7.6 1.5 1.1 2.1 1.8-1.9 3.1-2.8 6.7-2.4 10 .3 2 1.5 5.2 4.1 4.4 3-.9 5.3-4.5 5.2-7.5-.1-3.2-2.3-6.3-4.6-8.7.3-.3.7-.6 1-.8 1.1.5 2.4.9 3.5.7.6.3 1.3.5 2.1.7 1.5.4 3.4.5 4.9-.3.2.6.6 1.2 1 1.6 1.9 1.9 5.1 2.6 8 2 2.6-.5 6.3-2.5 8.1-5.1 0 0 0 .1.1.1.2.2.5.4.7.6 1.5 1 3.6.9 5.3.5.8-.2 1.5-.4 2.1-.7 1.1.2 2.3-.1 3.5-.7.3.3.7.5 1 .8-2.3 2.4-4.5 5.5-4.6 8.7.5 3 2.8 6.7 5.8 7.5m5.9-17.6c2.1-1.3 4.3-2.5 6.7-3.1.8-.2 1.7-.4 2.6-.5.4 0 .8 0 1.3.1 0 0 .4.2.7.3v.7c0 .4-.1.8-.3 1.1-.3.8-1 1.5-1.8 1.9-1.7.9-3.7 1-5.6.7-1.3-.2-2.7-.5-4.1-1 .2 0 .4-.1.5-.2M165 21.1c-1.8.2-3.9.2-5.6-.7-.8-.4-1.4-1.1-1.8-1.9-.1-.4-.2-.7-.3-1.1v-.7c.3-.1.6-.3.7-.3.4-.1.8-.1 1.3-.1.9 0 1.8.2 2.6.5 2.4.7 4.6 1.8 6.7 3.1.1.1.3.2.4.2-1.3.5-2.7.9-4 1m12.4 8c.5 1 1.2 2.8.8 3.9-.4 1.1-2.2 2.1-3.3 1.9-.6-.1-1.2-.5-1.6-.9-1.5-1.7-1.7-4.5-1.3-6.6.2-1.5.7-2.7 1.4-3.8.2.2.4.4.6.7 1.3 1.4 2.6 3 3.4 4.8m-4.3-9.7c.2-.2.4-.3.5-.5.4.3.9.7 1.5 1-.2.2-.4.5-.6.7-.3-.3-.6-.5-.9-.8-.1-.1-.3-.2-.5-.4m1.7-3.3c-3.2-2.7-5.4-7.7-4.3-11.9.1-.5.6-1.1 1.6-1.1.8 0 1.6.5 2.2 1.1 2 2 2.5 5.3 2.1 8-.2 1.5-.8 2.8-1.6 3.9m4.9-1h.2c.4.3.7.5.9.7-.4.2-.8.3-1.1.5 0-.3.1-.8 0-1.2m1.9 3.2c-.2.1-.4.1-.6.2-.1-.1-.2-.1-.3-.2.3-.1.6-.2 1-.3 0 .1 0 .2-.1.3m4.6 1.1c-1.1.1-2.3 0-3.3-.2-.2 0-.4-.1-.6-.2.2-.4.4-.9.6-1.3 1.1-.2 2.2-.3 3.4-.4-.1.8-.1 1.5-.1 2.1m7.7-4c.5-1.4 1.7-1.8 3-1.9.8.8 1.3 1.8 1.2 2.8-.1 1.9-2 3.2-3.6 3.8-.6-1.4-1.1-3.1-.6-4.7m-4.6 5.3c-1.2-3.1 1-7.1 4.1-8-.8.5-1.6 1.1-2 1.9-1.1 2-.6 4.4.2 6.4-.7.1-1.4.2-2 .3-.1-.3-.2-.4-.3-.6m9.6 1.4c-2.1 1.4-5.5 2.1-7.7.8 1.6-.3 3.1-.7 4.6-1.2 2.2-.9 4.8-2.5 5.2-5.1.1-.7 0-1.5-.2-2.3.6.5 1.1 1.1 1.2 2.1.4 2.4-1.3 4.5-3.1 5.7m9.9-3.4c-1.1.3-2.3.5-3.4.3-.2 0-.5-.1-.7-.2.2-.5.4-1.1.4-1.7v-.3c1.2 0 2.5.2 3.8.4.1.5.3.9.6 1.3-.3 0-.5.1-.7.2m1.9-.8c-.2-.1-.4-.1-.6-.2v-.3c.3.1.6.2 1 .3-.2.1-.3.2-.4.2m1.3-2.1c-.4-.2-.7-.4-1.1-.5.2-.3.5-.5.9-.7h.2v1.2m3.3-4.1c-.4-2.7.1-6 2.2-8 .6-.6 1.3-1.1 2.2-1.1.9 0 1.4.5 1.6 1.1 1.1 4.2-1.1 9.2-4.3 11.9-.9-1.2-1.5-2.5-1.7-3.9m3.3 7.2c-.2.2-.4.3-.6.5-.3.2-.6.5-.9.8-.2-.2-.4-.5-.6-.7.5-.3 1-.7 1.5-1h.1c.2 0 .3.2.5.4m-.9 4.8c.2-.2.4-.4.6-.7.7 1.1 1.1 2.4 1.4 3.8.4 2.1.2 4.9-1.3 6.6-.4.5-1 .9-1.6.9-1.1.1-3-.9-3.3-1.9-.4-1.1.4-2.9.8-3.9.8-1.7 2.1-3.3 3.4-4.8M25.9 89.3V89h-.2c-1-.1-2.1-.1-3.3-.1H12.2c-1.7 0-3.3-.1-4.8-.3l-1.2-.1-.1-1.2c-.2-2.4-.2-5-.3-7.6v-8c0-2.7.1-5.4.1-8.1.1-2.4.1-4.6.1-6.7v-.2h-.2c-.2-.1-.4-.1-.6-.1-.7-.1-1.3-.1-2-.1s-1.4.1-2.1.2c-.3 0-.5.1-.8.1H.1v.2c0 2.7-.1 5.6-.1 8.4v10.1c0 3.4.1 6.7.1 10.1 0 2.7.1 5.4.1 8.1v.3h25.6v-.4c.1-.6.1-1.3.1-2s0-1.4-.1-2c.1-.1.1-.2.1-.3m46-4.2c-1.4-3.5-2.7-7-4-10.3-1.3-3.4-2.7-6.8-4.1-10-1.2-2.9-2.5-5.8-3.9-8.7l-.1-.2h-5.6l-.1.1c-1.4 2.8-2.7 5.8-3.9 8.8-1.4 3.3-2.8 6.7-4.2 10.2-1.4 3.5-2.8 7-4.2 10.4-1 2.5-2.1 5.1-3.3 7.6l-.2.4h.4c.8 0 1.5.1 2.2.1h1.8c.3 0 .6-.1 1-.2h.1v-.1c.3-.4.6-.9.8-1.4.4-.8.7-1.4.9-2 .3-.7.6-1.4 1-2.2.4-.8.8-1.5 1.3-2.2l.4-.5.6-.1c1.1-.2 2.3-.3 3.6-.4 1.3-.1 2.7-.2 4.1-.2 1.4 0 2.8-.1 4.3-.1h5l.4.6c.5.7.9 1.5 1.3 2.4.3.8.6 1.6.9 2.5l.8 2.5c.1.4.3.9.4 1.3l.1.2h5.5l-.1-.4c-1-2.6-2.1-5.4-3.2-8.1M57.4 60.9l1.1 4c.6 2.2 1.3 4.2 2.1 6.1l3.6 8.3h-14l.5-1.8c.7-2.3 1.4-4.5 2.3-6.5l4.4-10.1zm76.2-3.8v-.7h-.2c-3.8-.2-8-.3-12.3-.1-4.4.1-8.9.2-13.4.2h-.2v.2c-.2 2.4-.3 4.9-.4 7.5-.1 3.2-.1 6.6 0 10l.1 10.4c0 2.8 0 5.6-.1 8.3v.3h1c.8 0 1.5.1 2.3.2.7.1 1.3.1 2 .2h.7v-.2c.2-.8.3-1.6.3-2.5 0-1.3-.1-2.7-.3-4-.2-1.4-.3-2.8-.3-4.1 0-1.5.2-2.9.7-4.2l.4-.9h17.6v-.4c.1-.6.1-1.2.1-1.9 0-.6 0-1.3-.1-1.9V73h-.2c-1.1-.1-2.2-.1-3.4-.1l-4.9.1h-4.7c-1.6-.1-3.1-.3-4.4-.6l-1.1-.3V71c0-.6 0-1.3-.1-2 0-.8-.1-1.5-.1-2.3 0-.8.1-1.6.2-2.4.1-.9.4-1.6.8-2.3l.4-.7h19.6l.3-.1v-1.9l-.3-2.2zm20.6-1.9h-.4c-.6 0-1.2 0-1.8.1-.7.1-1.4.2-2 .3-.1 0-.2 0-.3.1l-.3.1v37.9h.9l2.1.1h2c.2 0 .4 0 .7-.1h.2v-.2c-.1-3-.2-6-.2-9.1V73.9c0-3.5.1-6.9.1-10.2 0-2.7.1-5.4.1-8.1v-.2h-.2c-.4-.2-.6-.2-.9-.2M205 85.1c-1.4-3.5-2.7-7-4-10.3-1.3-3.2-2.7-6.6-4.1-10-1.2-2.9-2.5-5.8-3.9-8.7l-.1-.2h-5.6l-.1.1c-1.4 2.8-2.7 5.8-3.9 8.8-1.3 3.1-2.7 6.5-4.2 10.2-1.3 3.3-2.8 6.8-4.2 10.4-1.1 2.6-2.2 5.1-3.3 7.6l-.2.4h.4c.8 0 1.5 0 2.2.1h1.8c.3 0 .6-.1 1-.2h.1v-.1c.3-.4.6-.9.8-1.4.3-.7.6-1.3.9-2 .3-.7.6-1.4 1-2.2.4-.8.8-1.5 1.3-2.2l.4-.5.6-.1c1.1-.2 2.3-.3 3.6-.4 1.4-.1 2.7-.2 4.1-.2 1.4 0 2.8-.1 4.3-.1h5l.4.6c.5.8 1 1.6 1.3 2.4.3.8.6 1.6.9 2.5l.8 2.5c.1.4.3.9.4 1.3l.1.2h5.5l-.1-.4c-1.1-2.6-2.1-5.3-3.2-8.1m-16.2-20.4l1.6-3.8 1.1 4c.6 2.1 1.3 4.2 2.1 6.1l3.6 8.3h-13.9l.5-1.8c.7-2.3 1.4-4.5 2.3-6.5.9-2 1.8-4.1 2.7-6.3m64.6-8.4c-.9 0-1.9-.1-2.7-.1h-.2v.2c-.3 1.3-.4 2.7-.5 4.1-.1 2.1-.2 4.2-.1 6.2 0 2.1.1 4.2.2 6.3.1 2.2.2 4.3.2 6.1V83l-2.5-2.8c-1.8-2-3.4-4-5-6.1-1.5-2-3.1-4.1-4.7-6.3-1.5-2.1-3-4.2-4.5-6.2-1.4-1.9-2.8-3.7-4.2-5.5l-.1-.1h-.1c-1-.2-2-.3-3.1-.2-.9 0-1.7.2-2.5.5l-.2.1v37.5h5.9v-.2c.2-3.3.2-6.9.1-10.6-.2-4.3-.2-8.6-.2-12.8v-4l2.5 3c1.8 2.1 3.5 4.3 5.1 6.4 1.6 2.1 3.2 4.3 4.8 6.4 1.6 2.1 3.2 4.2 4.9 6.3 1.5 1.9 3.1 3.7 4.8 5.4l.1.1h.1c.3 0 .6 0 1 .1.6.1 1.2.1 1.8.1h2V56.6h-.2c-1-.2-1.8-.3-2.7-.3m47.1.5c-2.2-.9-4.6-1.5-7.1-1.7-2.5-.2-5-.1-7.5.4-2.4.5-4.5 1.4-6.2 2.7l-.2.1c-1.5.8-2.7 1.9-3.8 3.3-1.1 1.5-2 3.2-2.6 5a29 29 0 00-1.2 6c-.2 2.1-.1 4.2.3 6.2s1 3.8 1.8 5.5c.8 1.6 1.9 3 3.2 4l.3.3c1.1 1.5 2.6 2.7 4.3 3.6 1.7.9 3.8 1.7 6.1 2.3 7.6 0 13.2-2.1 16.8-6.1l.2-.2-.2-.2c-.6-.7-1.1-1.3-1.7-1.9-.5-.5-1-1.1-1.6-1.6l-.2-.2-.2.2c-1 1-2.1 1.7-3.3 2.3-1.7.8-3.5 1.3-5.3 1.4-1.8.1-3.7-.1-5.5-.6-1.8-.5-3.5-1.4-4.9-2.6-1.4-1.2-2.6-2.7-3.5-4.4-.9-1.8-1.3-3.9-1.1-6.2-.1-2.1.3-4.2 1.1-5.9.8-1.8 1.9-3.3 3.3-4.5 1.4-1.2 3-2.1 4.8-2.6 1.8-.6 3.6-.8 5.4-.8 1.8.1 3.6.5 5.4 1.2 1.2.5 2.3 1.2 3.3 2.1l.2.2.2-.2L303 62c.7-.7 1.3-1.5 1.8-2.5l.1-.2-.2-.1c-1.1-.9-2.5-1.8-4.2-2.4m47.6 31.7c-1.5 0-3 .1-4.4.2-1.9.1-3.8.2-5.5.2h-.8c-1.5 0-3.1-.1-4.6-.2-1.8-.1-3.6-.5-5.2-1l-1-.3v-1.1c0-.5 0-1.1-.1-1.7-.1-.7-.2-1.5-.2-2.2 0-.8 0-1.5.2-2.2.2-.9.7-1.6 1.4-2.1l.3-.1c1.2-.5 2.7-.8 4.3-.9 1.5-.1 3.1-.1 4.8 0l4.8.3c.9.1 1.8.1 2.6 0h.2v-.2c0-.2.1-.5.1-.7l.3-2.1c.1-.6.2-1.2.2-1.8v-.2h-.2c-.9-.1-1.9-.1-2.9-.1l-4.8.1h-4.7c-1.6 0-3.1-.3-4.5-.6l-.7-.2-.3-.6c-.2-.6-.4-1.2-.6-1.9-.1-.6-.3-1.3-.3-2-.1-.7-.1-1.4-.1-2 0-.7.1-1.4.3-2l.2-.7.7-.2c1.5-.5 3.2-.8 5.1-1 1.6-.1 3.2-.2 4.8-.2h.7c1.8 0 3.6.1 5.5.2 1.2.1 2.5.1 3.6.2h.2v-.2c.1-.8.2-1.6.3-2.5 0-.8 0-1.6.1-2.3v-.3h-.3c-1.7.1-3.4.2-5.2.3l-2.9.1-.4-.8c-.8-1.6-1.6-3-1.8-3.3-.1-.2-.3-.4-.4-.7l-.1-.3-.8.6c-.7.5-1.6 1.2-2.7 1.8-1.6.9-3.3 1.9-4.4 2.6l-.3.2h-7.7V94h.3c1.9-.1 3.9-.2 5.8-.2 3.1 0 6.1 0 9.1-.1h6c1.9 0 3.8-.1 5.7-.2h.2v-.2c0-.2.1-.4.1-.6.1-.7.2-1.3.3-2 .1-.6.1-1.2 0-1.8v-.2l-.3-.2zm43.6 0h-.2c-1.5 0-3 .1-4.4.2-1.9.1-3.8.2-5.5.2h-.8c-1.5 0-3.1-.1-4.6-.2-1.8-.1-3.6-.5-5.2-1l-1-.3v-1.1c0-.5-.1-1.1-.2-1.7-.1-.7-.2-1.5-.2-2.2 0-.8 0-1.5.2-2.1.2-.9.7-1.6 1.4-2.1l.2-.1c1.2-.5 2.7-.9 4.3-.9 1.5-.1 3.1-.1 4.8 0l4.8.3c.9.1 1.8.1 2.6 0h.2v-.2c0-.2.1-.5.1-.7l.3-2.1c.1-.6.2-1.2.2-1.8v-.2h-.2c-.9-.1-1.9-.1-2.9-.1l-4.8.1h-4.7c-1.6 0-3.1-.3-4.5-.6l-.7-.2-.3-.7c-.2-.5-.4-1.2-.6-1.9-.1-.7-.3-1.3-.3-2-.1-.7-.1-1.4-.1-2 0-.8.1-1.4.3-2l.2-.7.7-.2c1.5-.5 3.2-.8 5.1-1 1.6-.1 3.2-.2 4.8-.2h.7c1.8 0 3.7.1 5.5.2 1.2.1 2.4.1 3.6.2h.2v-.2c.1-.8.2-1.7.3-2.5 0-.8.1-1.6.1-2.3v-.3h-.3c-1.7.1-3.4.2-5.2.3-2.6.1-5.1.2-7.6.2-2.6 0-5.2.1-7.8.1H364v37.4h.3c1.9-.1 3.9-.2 5.8-.2 3 0 6.1 0 9.1-.1h6c1.9 0 3.8-.1 5.7-.2h.2v-.2c0-.2.1-.4.1-.6.1-.6.2-1.3.3-2 .1-.6.1-1.2 0-1.8l.2-.5z" clip-path="url(#b)"/></svg>